<svg id="Layer_2" data-name="Layer 2" xmlns="http://www.w3.org/2000/svg" viewBox="0 0 79.35 79.35"><defs><style>.cls-1,.cls-2,.cls-4,.cls-5,.cls-6{fill:none;stroke:#fff;}.cls-1,.cls-4{stroke-miterlimit:10;}.cls-1,.cls-2{stroke-width:4px;}.cls-2,.cls-5,.cls-6{stroke-linejoin:round;}.cls-3{fill:#fff;}.cls-4,.cls-5,.cls-6{stroke-width:3px;}.cls-5{stroke-linecap:round;}</style></defs><title>bot-logo</title><circle class="cls-1" cx="39.68" cy="39.68" r="37.68"/><path class="cls-2" d="M98.75,69.78c0-12.18-10.38-22.14-23.06-22.14h0c-12.68,0-23.06,10-23.06,22.14V82.72a11.31,11.31,0,0,0,11.5,11H87.25a11.31,11.31,0,0,0,11.5-11V69.78Z" transform="translate(-36.01 -31.65)"/><circle class="cls-3" cx="26.74" cy="42.68" r="3.85"/><circle class="cls-3" cx="52.61" cy="42.68" r="3.85"/><path class="cls-4" d="M52.62,66.28c-3.73,0-6.75,3.6-6.75,8s3,8,6.75,8" transform="translate(-36.01 -31.65)"/><path class="cls-4" d="M98.75,66.28c3.73,0,6.75,3.6,6.75,8s-3,8-6.75,8" transform="translate(-36.01 -31.65)"/><line class="cls-5" x1="39.68" y1="62.11" x2="39.68" y2="55.86"/><line class="cls-5" x1="39.68" y1="20.11" x2="39.68" y2="10.35"/><line class="cls-5" x1="33.49" y1="62.11" x2="33.49" y2="55.86"/><line class="cls-5" x1="45.86" y1="62.11" x2="45.86" y2="55.86"/><path class="cls-6" d="M94.38,56.85C91.61,61,84.28,64,75.69,64S59.77,61,57,56.85" transform="translate(-36.01 -31.65)"/><rect class="cls-3" x="36.11" y="62.11" width="7.12" height="7.12" rx="1.81" ry="1.81"/></svg>